<?xml version="1.0" encoding="UTF-8"?>
<svg id="Layer_1" data-name="Layer 1" xmlns="http://www.w3.org/2000/svg" viewBox="0 0 80 80">
  <defs>
    <style>
      .cls-1 {
        fill: #fff;
      }

      .cls-2 {
        fill: #ff5c5c;
      }
    </style>
  </defs>
  <path class="cls-2" d="M75.79,40c0-19.77-16.02-35.79-35.79-35.79S4.21,20.23,4.21,40s16.02,35.79,35.79,35.79,35.79-16.02,35.79-35.79Z"/>
  <path class="cls-1" d="M45.7,55.25c.82,.82,.82,2.16,0,2.98-.82,.82-2.16,.82-2.98,0l-16.84-16.84c-.82-.82-.82-2.16,0-2.98l16.84-16.84c.82-.82,2.16-.82,2.98,0s.82,2.16,0,2.98l-15.35,15.35,15.35,15.36Zm30.09-15.25c0-19.77-16.02-35.79-35.79-35.79S4.21,20.23,4.21,40s16.02,35.79,35.79,35.79,35.79-16.02,35.79-35.79Zm4.21,0c0,22.09-17.91,40-40,40S0,62.09,0,40,17.91,0,40,0s40,17.91,40,40Z"/>
</svg>