<?xml version="1.0" encoding="UTF-8"?>
<svg id="Layer_1" data-name="Layer 1" xmlns="http://www.w3.org/2000/svg" viewBox="0 0 80 80">
  <defs>
    <style>
      .cls-1 {
        fill: #fff;
      }

      .cls-2 {
        fill: #ff5c5c;
      }
    </style>
  </defs>
  <path class="cls-2" d="M79.07,40C79.07,18.42,61.58,.93,40,.93S.93,18.42,.93,40s17.49,39.07,39.07,39.07,39.07-17.49,39.07-39.07Z"/>
  <path class="cls-1" d="M45.26,54.08c.76,.76,.76,1.99,0,2.75-.76,.76-1.99,.76-2.75,0l-15.55-15.55c-.76-.76-.76-1.99,0-2.75l15.55-15.55c.76-.76,1.99-.76,2.75,0s.76,1.99,0,2.75l-14.17,14.17,14.17,14.18Zm27.78-14.08c0-18.25-14.79-33.04-33.04-33.04S6.96,21.75,6.96,40s14.79,33.04,33.04,33.04,33.04-14.79,33.04-33.04Zm3.89,0c0,20.4-16.53,36.93-36.93,36.93S3.07,60.4,3.07,40,19.61,3.07,40,3.07s36.93,16.53,36.93,36.93Z"/>
</svg>